<mxfile host="65bd71144e">
    <diagram id="rReh8qG5m7tQL1wDf64W" name="Page-1">
        <mxGraphModel dx="429" dy="759" grid="1" gridSize="10" guides="1" tooltips="1" connect="1" arrows="1" fold="1" page="1" pageScale="1" pageWidth="850" pageHeight="1100" math="0" shadow="0">
            <root>
                <mxCell id="0"/>
                <mxCell id="1" parent="0"/>
                <mxCell id="3" value="Partition&lt;br style=&quot;font-size: 12px;&quot;&gt;Tolerance" style="ellipse;whiteSpace=wrap;html=1;fillStyle=auto;fillColor=#fff2cc;strokeColor=#d6b656;opacity=75;fontStyle=0;fontSize=12;verticalAlign=bottom;spacing=25;" parent="1" vertex="1">
                    <mxGeometry x="100" y="160" width="120" height="120" as="geometry"/>
                </mxCell>
                <mxCell id="4" value="Consistency" style="ellipse;whiteSpace=wrap;html=1;fillStyle=auto;fillColor=#f8cecc;strokeColor=#b85450;opacity=75;fontStyle=0;fontSize=12;align=center;spacing=25;verticalAlign=top;" parent="1" vertex="1">
                    <mxGeometry x="35" y="90" width="120" height="120" as="geometry"/>
                </mxCell>
                <mxCell id="2" value="Availability" style="ellipse;whiteSpace=wrap;html=1;fillStyle=auto;fillColor=#dae8fc;strokeColor=#6c8ebf;opacity=75;fontStyle=0;fontSize=12;align=center;spacing=25;verticalAlign=top;" parent="1" vertex="1">
                    <mxGeometry x="165" y="90" width="120" height="120" as="geometry"/>
                </mxCell>
                <mxCell id="6" value="AP" style="text;html=1;strokeColor=none;fillColor=none;align=center;verticalAlign=middle;whiteSpace=wrap;rounded=0;fontSize=12;fontStyle=1" parent="1" vertex="1">
                    <mxGeometry x="160" y="170" width="60" height="30" as="geometry"/>
                </mxCell>
                <mxCell id="7" value="CP" style="text;html=1;strokeColor=none;fillColor=none;align=center;verticalAlign=middle;whiteSpace=wrap;rounded=0;fontSize=12;fontStyle=1" parent="1" vertex="1">
                    <mxGeometry x="100" y="170" width="60" height="30" as="geometry"/>
                </mxCell>
            </root>
        </mxGraphModel>
    </diagram>
</mxfile>
